<?xml version="1.0" encoding="UTF-8"?><svg id="a" xmlns="http://www.w3.org/2000/svg" viewBox="0 0 379.65 371.11"><defs><style>.b{fill:#231f20;}</style></defs><path class="b" d="M297.26,0H82.39C36.89,0,0,36.89,0,82.39v206.32C0,334.22,36.89,371.11,82.39,371.11h214.86c45.51,0,82.39-36.89,82.39-82.39V82.39c0-45.51-36.89-82.39-82.39-82.39ZM361.28,288.71c0,35.3-28.72,64.02-64.02,64.02h-153.19v-61.45c0-5.42,4.23-16.16,8.13-20.11,19.27-19.5,33.57,9.23,47.17,20.11-7.95,9.73-8.1,25.93,0,35.74,18.6,22.5,55.51,9.05,53.01-20.75-1.32-15.78-16.3-27.91-31.96-26.79-1.67.12-5.37,1.43-6.61.88l-23.07-23.08c-.15-1.76,1.13-1.72,1.37-1.72l16.78,1.44c5.63,0,18.58,6.12,25.51,7.34,7.03,1.23,14.82,1.02,21.95,1.39,2.74,10.85,11.29,19.26,21.67,22.98,36.91,13.22,65.78-35.92,34.57-61.65-20.51-16.9-52.56-5.29-57.34,20.7-6.74.23-12.55.26-19.12-1.29-10.46-2.47-20.3-7.24-31.25-7.93-27.68-1.74-53.45,2.77-69.92,26.92-3.97,5.83-8.53,11.7-9.9,25.82v61.45h-42.66c-35.3,0-64.02-28.72-64.02-64.02V82.39c0-35.3,28.72-64.02,64.02-64.02h214.86c35.3,0,64.02,28.72,64.02,64.02v206.32ZM211.71,308.73c0-6.17,5-11.17,11.17-11.17s11.17,5,11.17,11.17-5,11.17-11.17,11.17-11.17-5-11.17-11.17ZM273.69,254.88c0-9.17,7.43-16.6,16.6-16.6s16.6,7.43,16.6,16.6-7.43,16.6-16.6,16.6-16.6-7.43-16.6-16.6ZM276.99,120.56c-19.94,11.12-23.48,38.06-8.44,54.91-4.61,7.02-10.34,13.64-18.25,16.92-5.9,2.45-11.93,2.94-18.11,3.01h0s-.29,0-.29,0c-1.18.01-2.36,0-3.55,0h-43.97c-3.25-.02-6.43-.26-9.5-.62-3.61-.42-4.34-2.61-3.7-6.04.47-2.57,5.84-6.8,7.76-8.95,36.1-40.29,73.08-79.8,109.74-119.58,3.4-4.08,4.15-11.34-2.36-11.71h-25.82c-23.43-.8-43.85-1.46-64.01,18.63-23.11,23.04-44.39,49.31-67.1,72.91-1.71,1.77-4.22,4.64-6.05,6.04-.58.44-.73,1.11-1.73.86v-66.55c0-12.93-12.18-26.68-25.07-27.94-23.13-2.26-38.91,12.64-41.7,34.93l-.07,202.16c.62,16.38,19.21,35.45,35.95,33.09,3.26-.46,4.61-2.22,4.95-5.42,1.05-9.98.16-20.18,1.89-30.37,4.19-24.56,21.02-45.84,41.37-59.46,31.7-21.22,68.88-8.16,103.86-13.68,16.85-2.66,31.7-14.24,41.29-27.89,20.31,5.36,40.22-5.65,45.24-26.18,7.43-30.4-25.4-54.09-52.33-39.07ZM294.68,168.34c-9.13,0-16.54-7.4-16.54-16.54s7.4-16.54,16.54-16.54,16.54,7.4,16.54,16.54-7.4,16.54-16.54,16.54Z"/></svg>