<?xml version="1.0" encoding="UTF-8"?><svg id="a" xmlns="http://www.w3.org/2000/svg" viewBox="0 0 379.65 464.59"><defs><style>.b{fill:#231f20;}</style></defs><path class="b" d="M55.04,463.62v-56.52h9.21v56.52h-9.21ZM60.85,447.31l-1.86-10.82,27.78-29.39h12.03l-37.95,40.21ZM88.23,463.62l-22.77-28.75,6.62-5.73,27.7,34.48h-11.55Z"/><path class="b" d="M121.66,464.59c-3.93,0-7.42-.9-10.46-2.71-3.04-1.8-5.44-4.29-7.19-7.47-1.75-3.18-2.62-6.84-2.62-10.98s.89-7.8,2.66-10.98c1.78-3.18,4.21-5.67,7.31-7.47,3.09-1.8,6.63-2.71,10.62-2.71,3.61,0,6.86.93,9.77,2.79,2.91,1.86,5.21,4.54,6.9,8.03,1.7,3.5,2.54,7.67,2.54,12.52h-31.73l1.21-1.13c0,2.48.54,4.62,1.62,6.42,1.08,1.8,2.5,3.19,4.28,4.16,1.78.97,3.74,1.45,5.89,1.45,2.48,0,4.52-.55,6.14-1.66,1.62-1.1,2.88-2.54,3.8-4.32l7.99,3.39c-1.13,2.15-2.57,4.04-4.32,5.65-1.75,1.61-3.82,2.85-6.22,3.71-2.4.86-5.13,1.29-8.2,1.29ZM111.24,439.8l-1.29-1.13h22.77l-1.21,1.13c0-2.21-.48-4.02-1.45-5.45-.97-1.43-2.19-2.5-3.67-3.23-1.48-.73-3.03-1.09-4.64-1.09s-3.23.36-4.84,1.09c-1.62.73-2.96,1.8-4.04,3.23-1.08,1.43-1.61,3.24-1.61,5.45Z"/><path class="b" d="M166.15,464.59c-3.93,0-7.42-.9-10.46-2.71-3.04-1.8-5.44-4.29-7.19-7.47-1.75-3.18-2.62-6.84-2.62-10.98s.89-7.8,2.66-10.98c1.78-3.18,4.21-5.67,7.31-7.47,3.09-1.8,6.63-2.71,10.62-2.71,3.61,0,6.86.93,9.77,2.79,2.91,1.86,5.21,4.54,6.9,8.03,1.7,3.5,2.54,7.67,2.54,12.52h-31.73l1.21-1.13c0,2.48.54,4.62,1.62,6.42,1.08,1.8,2.5,3.19,4.28,4.16,1.78.97,3.74,1.45,5.89,1.45,2.48,0,4.52-.55,6.14-1.66,1.62-1.1,2.88-2.54,3.8-4.32l7.99,3.39c-1.13,2.15-2.57,4.04-4.32,5.65-1.75,1.61-3.82,2.85-6.22,3.71-2.4.86-5.13,1.29-8.2,1.29ZM155.73,439.8l-1.29-1.13h22.77l-1.21,1.13c0-2.21-.48-4.02-1.45-5.45-.97-1.43-2.19-2.5-3.67-3.23-1.48-.73-3.03-1.09-4.64-1.09s-3.23.36-4.84,1.09c-1.62.73-2.96,1.8-4.04,3.23-1.08,1.43-1.61,3.24-1.61,5.45Z"/><path class="b" d="M192.63,463.62v-40.37h8.48l.57,7.43v32.95h-9.04ZM220,442.95c0-3.23-.36-5.72-1.09-7.47-.73-1.75-1.75-2.97-3.07-3.67-1.32-.7-2.87-1.05-4.64-1.05-3.02-.05-5.36.94-7.03,2.99-1.67,2.05-2.5,4.98-2.5,8.8h-3.39c0-4.25.62-7.9,1.86-10.94,1.24-3.04,3.01-5.36,5.33-6.94,2.31-1.59,5.06-2.38,8.24-2.38s5.99.65,8.28,1.94c2.29,1.29,4.04,3.3,5.25,6.02,1.21,2.72,1.82,6.26,1.82,10.62v2.1h-9.04ZM220,463.62v-20.67h9.04v20.67h-9.04Z"/><path class="b" d="M258.44,464.59c-2.96,0-5.67-.35-8.11-1.05-2.45-.7-4.6-1.67-6.46-2.91s-3.39-2.62-4.6-4.16c-1.21-1.53-2.06-3.13-2.54-4.8l9.21-2.83c.7,1.99,2.07,3.74,4.12,5.25,2.04,1.51,4.58,2.29,7.59,2.34,3.5,0,6.27-.73,8.32-2.18,2.04-1.45,3.07-3.36,3.07-5.73,0-2.15-.86-3.92-2.58-5.29-1.72-1.37-4.04-2.43-6.94-3.19l-6.94-1.78c-2.64-.7-5.02-1.72-7.15-3.07-2.13-1.34-3.79-3.04-5.01-5.09-1.21-2.05-1.82-4.47-1.82-7.27,0-5.28,1.72-9.38,5.17-12.31,3.44-2.93,8.37-4.4,14.78-4.4,3.61,0,6.77.55,9.49,1.66,2.72,1.1,4.97,2.61,6.74,4.52,1.78,1.91,3.09,4.08,3.96,6.5l-9.04,2.91c-.81-2.15-2.21-3.93-4.2-5.33-1.99-1.4-4.47-2.1-7.43-2.1s-5.48.73-7.23,2.18c-1.75,1.45-2.62,3.47-2.62,6.06,0,2.1.69,3.73,2.06,4.89,1.37,1.16,3.24,2.03,5.61,2.62l6.94,1.7c5.06,1.24,8.99,3.37,11.79,6.38s4.2,6.35,4.2,10.01c0,3.23-.78,6.08-2.34,8.56-1.56,2.48-3.86,4.42-6.9,5.81-3.04,1.4-6.74,2.1-11.1,2.1Z"/><path class="b" d="M289.12,463.62v-56.52h19.94c3.82,0,7.23.78,10.21,2.34,2.99,1.56,5.32,3.73,6.98,6.5,1.67,2.77,2.5,5.99,2.5,9.65s-.78,6.8-2.34,9.57-3.74,4.95-6.54,6.54c-2.8,1.59-6,2.38-9.61,2.38h-11.79v19.54h-9.37ZM298.49,435.44h11.63c2.69,0,4.9-.92,6.62-2.75,1.72-1.83,2.58-4.2,2.58-7.11s-.97-5.36-2.91-7.19c-1.94-1.83-4.44-2.75-7.51-2.75h-10.42v19.78Z"/><path class="b" d="M297.26,0H82.39C36.89,0,0,36.89,0,82.39v206.32C0,334.22,36.89,371.11,82.39,371.11h214.86c45.51,0,82.39-36.89,82.39-82.39V82.39C379.65,36.89,342.76,0,297.26,0ZM361.28,288.71c0,35.3-28.72,64.02-64.02,64.02h-153.19v-61.45c0-5.42,4.23-16.16,8.13-20.11,19.27-19.5,33.57,9.23,47.17,20.11-7.95,9.73-8.1,25.93,0,35.74,18.6,22.5,55.51,9.05,53.01-20.75-1.32-15.78-16.3-27.91-31.96-26.79-1.67.12-5.37,1.43-6.61.88l-23.07-23.08c-.15-1.76,1.13-1.72,1.37-1.72l16.78,1.44c5.63,0,18.58,6.12,25.51,7.34,7.03,1.23,14.82,1.02,21.95,1.39,2.74,10.85,11.29,19.26,21.67,22.98,36.91,13.22,65.78-35.92,34.57-61.65-20.51-16.9-52.56-5.29-57.34,20.7-6.74.23-12.55.26-19.12-1.29-10.46-2.47-20.3-7.24-31.25-7.93-27.68-1.74-53.45,2.77-69.92,26.92-3.97,5.83-8.53,11.7-9.9,25.82v61.45h-42.66c-35.3,0-64.02-28.72-64.02-64.02V82.39c0-35.3,28.72-64.02,64.02-64.02h214.86c35.3,0,64.02,28.72,64.02,64.02v206.32ZM211.71,308.73c0-6.17,5-11.17,11.17-11.17s11.17,5,11.17,11.17-5,11.17-11.17,11.17-11.17-5-11.17-11.17ZM273.69,254.88c0-9.17,7.43-16.6,16.6-16.6s16.6,7.43,16.6,16.6-7.43,16.6-16.6,16.6-16.6-7.43-16.6-16.6ZM276.99,120.56c-19.94,11.12-23.48,38.06-8.44,54.91-4.61,7.02-10.34,13.64-18.25,16.92-5.9,2.45-11.93,2.94-18.11,3.01h0s-.29,0-.29,0c-1.18.01-2.36,0-3.55,0h-43.97c-3.25-.02-6.43-.26-9.5-.62-3.61-.42-4.34-2.61-3.7-6.04.47-2.57,5.84-6.8,7.76-8.95,36.1-40.29,73.08-79.8,109.74-119.58,3.4-4.08,4.15-11.34-2.36-11.71h-25.82c-23.43-.8-43.85-1.46-64.01,18.63-23.11,23.04-44.39,49.31-67.1,72.91-1.71,1.77-4.22,4.64-6.05,6.04-.58.44-.73,1.11-1.73.86v-66.55c0-12.93-12.18-26.68-25.07-27.94-23.13-2.26-38.91,12.64-41.7,34.93l-.07,202.16c.62,16.38,19.21,35.45,35.95,33.09,3.26-.46,4.61-2.22,4.95-5.42,1.05-9.98.16-20.18,1.89-30.37,4.19-24.56,21.02-45.84,41.37-59.46,31.7-21.22,68.88-8.16,103.86-13.68,16.85-2.66,31.7-14.24,41.29-27.89,20.31,5.36,40.22-5.65,45.24-26.18,7.43-30.4-25.4-54.09-52.33-39.07ZM294.68,168.34c-9.13,0-16.54-7.4-16.54-16.54s7.4-16.54,16.54-16.54,16.54,7.4,16.54,16.54-7.4,16.54-16.54,16.54Z"/></svg>